# xmcd CD database file
#
# Track frame offsets:
#	150
#	14672
#	29870
#	43960
#	55637
#	67410
#	81087
#	93620
#	107000
#	121977
#	133990
#	149562
#	162662
#	176437
#	189452
#	203080
#	216552
#	230347
#	243905
#	257410
#	271550
#	285642
#	298810
#	313477
#	327707
#
# Disc length: 4538 seconds
#
# Revision: 0
# Processed by: cddbd v1.5.1PL2 Copyright (c) Steve Scherf et al.
# Submitted via: CDex 1.51
#
DISCID=9911b819
DTITLE=Bumble Bee Slim - Complete Recorded Works, Vol-2
DYEAR=1994
DGENRE=Blues
TTITLE0=Step Child
TTITLE1=Sad And Lonesome
TTITLE2=Bye Bye Baby Blues
TTITLE3=Cruel Hearted Woman Blues - Part 1
TTITLE4=Cruel Hearted Woman Blues - Part 2
TTITLE5=The Longest Day You Live - Part 1
TTITLE6=Cruel Hearted Woman Blues - Part 2
TTITLE7=Deep Bass Boogie
TTITLE8=Blue Blues
TTITLE9=Rough Road Blues
TTITLE10=New Mean Mistreater Blues
TTITLE11=Climbing On The Top Of The Hill
TTITLE12=Ain't It A Crying Shame ?
TTITLE13=Bad Gal (Take A)
TTITLE14=Bad Gal (Take 2)
TTITLE15=I Tried Everything I Could (Take A)
TTITLE16=Sail On Little Girl No. 2
TTITLE17=Aching Pain Blues
TTITLE18=Cold-Blooded Murder
TTITLE19=Burned Down Mill (Take A)
TTITLE20=Burned Down Mill (Take B)
TTITLE21=Mean Mistreatin' Woman
TTITLE22=Worrisome Woman Blues
TTITLE23=Mean Bad Man Blues
TTITLE24=Muddy Water Blues
EXTD=YEAR: 1994
EXTT0=
EXTT1=
EXTT2=
EXTT3=
EXTT4=
EXTT5=
EXTT6=
EXTT7=
EXTT8=
EXTT9=
EXTT10=
EXTT11=
EXTT12=
EXTT13=
EXTT14=
EXTT15=
EXTT16=
EXTT17=
EXTT18=
EXTT19=
EXTT20=
EXTT21=
EXTT22=
EXTT23=
EXTT24=
PLAYORDER=
